<svg width="11" height="11" viewBox="0 0 11 11" fill="none" xmlns="http://www.w3.org/2000/svg">
<path d="M6.78321 5.00006L10.8332 0.950064C10.9242 0.843785 10.9718 0.707076 10.9664 0.567256C10.961 0.427436 10.903 0.294804 10.8041 0.195862C10.7051 0.0969207 10.5725 0.038958 10.4327 0.0335574C10.2929 0.0281567 10.1562 0.0757159 10.0499 0.166731L5.99988 4.21673L1.94988 0.161175C1.8436 0.0701602 1.70689 0.0226016 1.56707 0.0280022C1.42725 0.0334029 1.29462 0.0913651 1.19568 0.190306C1.09673 0.289248 1.03877 0.421881 1.03337 0.561701C1.02797 0.701521 1.07553 0.83823 1.16654 0.944508L5.21654 5.00006L1.16099 9.05007C1.10283 9.09987 1.0556 9.16116 1.02225 9.23008C0.988905 9.29901 0.970166 9.37408 0.967211 9.45059C0.964256 9.5271 0.977148 9.6034 1.00508 9.67469C1.03301 9.74598 1.07537 9.81073 1.12952 9.86487C1.18366 9.91901 1.24841 9.96138 1.3197 9.98931C1.39099 10.0172 1.46728 10.0301 1.5438 10.0272C1.62031 10.0242 1.69538 10.0055 1.7643 9.97214C1.83323 9.93879 1.89452 9.89156 1.94432 9.8334L5.99988 5.7834L10.0499 9.8334C10.1562 9.92441 10.2929 9.97197 10.4327 9.96657C10.5725 9.96117 10.7051 9.90321 10.8041 9.80427C10.903 9.70533 10.961 9.57269 10.9664 9.43287C10.9718 9.29305 10.9242 9.15634 10.8332 9.05007L6.78321 5.00006Z" fill="#292929"/>
</svg>
